<?xml version="1.0" encoding="UTF-8" standalone="no"?>
<svg
   className="fill-white"
   viewBox="0 0 24 24"
   version="1.1"
   id="svg4"
   sodipodi:docname="home.svg"
   inkscape:version="1.2.2 (732a01da63, 2022-12-09)"
   xmlns:inkscape="http://www.inkscape.org/namespaces/inkscape"
   xmlns:sodipodi="http://sodipodi.sourceforge.net/DTD/sodipodi-0.dtd"
   xmlns="http://www.w3.org/2000/svg"
   xmlns:svg="http://www.w3.org/2000/svg">
  <defs
     id="defs8" />
  <sodipodi:namedview
     id="namedview6"
     pagecolor="#505050"
     bordercolor="#ffffff"
     borderopacity="1"
     inkscape:showpageshadow="0"
     inkscape:pageopacity="0"
     inkscape:pagecheckerboard="1"
     inkscape:deskcolor="#505050"
     showgrid="false"
     inkscape:zoom="34.541667"
     inkscape:cx="11.015682"
     inkscape:cy="12.014475"
     inkscape:window-width="1920"
     inkscape:window-height="1009"
     inkscape:window-x="-8"
     inkscape:window-y="-8"
     inkscape:window-maximized="1"
     inkscape:current-layer="svg4" />
  <path
     d="M20,8h0L14,2.74a3,3,0,0,0-4,0L4,8a3,3,0,0,0-1,2.26V19a3,3,0,0,0,3,3H18a3,3,0,0,0,3-3V10.25A3,3,0,0,0,20,8ZM14,20H10V15a1,1,0,0,1,1-1h2a1,1,0,0,1,1,1Zm5-1a1,1,0,0,1-1,1H16V15a3,3,0,0,0-3-3H11a3,3,0,0,0-3,3v5H6a1,1,0,0,1-1-1V10.25a1,1,0,0,1,.34-.75l6-5.25a1,1,0,0,1,1.32,0l6,5.25a1,1,0,0,1,.34.75Z"
     id="path2"
     style="fill:#fcfcfc;fill-opacity:1" />
</svg>
