<?xml version="1.0" standalone="no"?>
<!DOCTYPE svg PUBLIC "-//W3C//DTD SVG 20010904//EN"
 "http://www.w3.org/TR/2001/REC-SVG-20010904/DTD/svg10.dtd">
<svg version="1.0" xmlns="http://www.w3.org/2000/svg"
 width="800.000000pt" height="800.000000pt" viewBox="0 0 800.000000 800.000000"
 preserveAspectRatio="xMidYMid meet">

<g transform="translate(0.000000,800.000000) scale(0.100000,-0.100000)"
fill="#000000" stroke="none">
<path d="M3593 7865 c-112 -25 -231 -102 -324 -210 -43 -50 -170 -219 -312
-417 -124 -171 -194 -218 -307 -205 -57 7 -104 29 -179 86 -41 31 -64 41 -92
41 -59 0 -69 -7 -69 -51 0 -35 5 -42 53 -78 140 -104 312 -143 442 -98 93 32
133 73 256 253 216 320 304 429 393 488 164 109 355 98 506 -29 25 -21 68 -49
97 -63 47 -23 55 -24 93 -13 l41 12 -17 27 c-69 107 -182 199 -292 238 -87 30
-207 38 -289 19z"/>
<path d="M4771 7685 c-108 -28 -271 -106 -476 -226 -159 -93 -218 -119 -274
-119 -62 0 -90 16 -176 99 -44 42 -96 89 -116 104 -30 23 -176 107 -185 107
-2 0 -8 -9 -14 -20 -8 -16 -5 -27 15 -58 42 -64 276 -274 342 -307 52 -27 67
-30 153 -30 86 0 102 4 163 32 37 18 105 54 150 82 193 116 404 207 549 237
74 16 97 16 154 7 184 -32 324 -171 369 -368 9 -36 25 -86 38 -111 18 -38 25
-44 47 -42 23 3 26 8 33 78 22 205 -39 343 -199 453 -109 74 -193 99 -349 104
-114 3 -142 0 -224 -22z"/>
<path d="M5011 7518 l-33 -31 4 -156 c4 -121 10 -170 26 -220 58 -177 190
-270 429 -302 95 -12 183 -9 408 17 177 20 332 16 395 -13 114 -50 185 -204
229 -497 11 -71 22 -131 25 -133 10 -11 77 20 87 40 18 32 4 196 -25 312 -52
203 -161 365 -268 394 -47 13 -341 11 -687 -5 -152 -7 -212 2 -307 47 -104 49
-180 153 -204 279 -5 29 -10 93 -10 142 0 55 -6 102 -14 123 -8 19 -16 35 -18
35 -2 0 -18 -14 -37 -32z"/>
<path d="M2285 7493 c-117 -42 -200 -114 -253 -220 -36 -71 -79 -253 -132
-567 -46 -269 -64 -321 -140 -397 -29 -29 -68 -55 -106 -70 -55 -22 -73 -23
-251 -24 -212 0 -225 -3 -200 -52 23 -44 37 -52 118 -69 254 -54 531 69 630
280 25 54 32 87 44 208 7 79 21 179 30 223 32 158 97 391 120 431 45 77 136
146 231 174 39 12 48 9 267 -70 124 -45 232 -80 239 -77 7 2 19 16 27 30 30
56 -33 97 -270 179 -120 40 -273 50 -354 21z"/>
<path d="M6136 6719 c-31 -36 -30 -30 -11 -189 20 -163 43 -277 65 -320 28
-54 168 -183 233 -213 62 -30 176 -57 240 -57 62 0 171 -26 233 -54 62 -29
155 -113 189 -171 62 -107 73 -251 30 -381 -14 -44 -33 -89 -41 -101 -8 -12
-14 -37 -14 -56 0 -32 2 -33 31 -29 36 5 88 54 113 106 64 135 60 390 -9 526
-71 141 -211 218 -490 271 -119 23 -223 52 -269 76 -49 25 -127 105 -152 155
-32 62 -49 135 -69 281 -14 102 -36 187 -49 187 -2 0 -16 -14 -30 -31z"/>
<path d="M1264 6621 c-171 -49 -280 -174 -330 -381 -16 -64 -19 -122 -20 -401
-2 -390 -6 -410 -87 -496 -96 -101 -187 -139 -358 -148 -149 -7 -183 -15 -187
-42 -2 -15 7 -27 34 -43 34 -22 43 -23 168 -17 205 10 324 50 429 147 73 67
112 134 133 230 16 68 16 100 4 350 -17 357 -13 426 27 505 38 72 112 147 173
174 79 35 118 36 216 8 163 -48 311 -68 343 -48 16 11 7 47 -21 77 -23 26
-120 71 -192 90 -73 20 -256 17 -332 -5z"/>
<path d="M1409 5106 c18 -25 57 -62 87 -81 44 -28 60 -47 79 -88 24 -53 51
-175 41 -185 -7 -6 -1204 16 -1313 24 -69 5 -73 5 -73 -15 0 -36 40 -109 78
-142 65 -57 76 -59 376 -59 307 0 278 8 291 -77 l6 -41 -41 5 c-51 7 -206 -13
-285 -38 -63 -19 -120 -64 -136 -107 -30 -79 12 -189 95 -252 55 -41 173 -102
328 -170 102 -44 161 -93 174 -145 11 -46 -2 -113 -30 -150 -23 -30 -117 -95
-137 -95 -4 0 -46 47 -94 105 -102 123 -149 166 -225 203 -74 36 -193 38 -256
5 -87 -46 -129 -123 -122 -223 9 -121 97 -231 225 -280 47 -19 84 -24 203 -28
199 -6 196 -4 260 -171 53 -137 131 -197 243 -189 35 2 43 7 45 26 5 30 -40
123 -122 252 -44 69 -66 113 -64 130 2 16 26 43 77 84 89 72 135 133 155 207
20 71 20 131 0 200 -29 99 -81 151 -244 247 -70 41 -278 170 -317 196 -1 1 0
12 4 24 5 21 10 22 117 22 108 0 113 -1 196 -40 93 -44 134 -50 149 -22 6 11
6 73 0 166 -5 82 -8 151 -6 153 2 2 101 6 219 10 l216 6 16 -25 c23 -35 31
-118 70 -686 36 -526 38 -536 84 -561 36 -19 116 -24 137 -8 23 18 24 33 5
283 -13 179 -13 182 9 226 32 67 140 170 218 208 183 90 393 11 393 -148 0
-100 -90 -303 -186 -418 l-64 -77 23 -40 c51 -93 81 -80 220 93 60 74 121 158
137 185 41 69 64 180 57 267 -19 221 -244 417 -434 378 -31 -7 -76 -21 -101
-31 -73 -32 -245 -130 -274 -157 -16 -14 -33 -22 -42 -19 -14 6 -16 36 -16
227 l0 221 26 26 26 26 421 -6 c380 -5 430 -7 499 -26 96 -25 148 -51 205
-104 68 -63 87 -107 88 -202 0 -106 -19 -152 -115 -280 -100 -134 -123 -192
-118 -300 6 -106 38 -178 116 -253 78 -77 157 -115 244 -120 78 -5 98 4 337
154 73 46 136 84 140 84 3 -1 28 -30 55 -67 73 -95 137 -119 152 -56 4 15 -5
149 -21 298 -24 225 -29 327 -33 608 l-4 337 219 -2 218 -3 6 -90 c4 -49 7
-329 8 -622 l1 -531 24 -29 c14 -16 43 -42 66 -58 l40 -28 27 24 26 24 -7 210
c-3 115 -11 271 -18 347 -17 207 9 288 124 379 158 125 294 140 440 47 56 -35
88 -93 88 -159 0 -57 -76 -335 -131 -477 -81 -211 -81 -216 -7 -298 79 -86
124 -72 158 48 10 35 36 106 59 159 80 191 116 381 109 593 -4 152 -21 202
-91 261 -72 62 -228 109 -362 109 -77 0 -99 -4 -150 -27 -32 -15 -82 -45 -110
-66 -27 -21 -62 -46 -76 -55 l-26 -16 -6 55 c-9 84 2 161 26 182 18 17 43 18
311 15 503 -4 622 -28 738 -149 115 -119 133 -297 51 -493 -103 -247 -113
-314 -58 -386 50 -65 194 -113 299 -99 98 14 181 58 302 163 40 34 77 62 83
62 16 0 14 -61 -14 -315 -48 -443 -75 -546 -168 -643 -29 -29 -58 -47 -91 -57
-97 -29 -182 8 -308 136 -57 57 -96 89 -109 89 -19 0 -189 -85 -189 -94 0 -9
204 -169 273 -214 114 -74 173 -94 292 -100 85 -3 109 -1 158 18 105 39 194
128 230 228 19 51 56 289 83 527 13 117 18 273 21 703 5 515 6 555 23 572 19
19 49 21 375 36 128 5 142 4 164 -13 20 -16 23 -28 25 -92 l1 -73 -54 -14
c-30 -8 -76 -26 -103 -41 -61 -33 -153 -131 -192 -202 -26 -48 -28 -60 -23
-124 4 -68 7 -73 43 -105 l39 -33 22 28 c13 15 30 51 38 78 58 198 263 292
375 170 24 -25 25 -33 28 -171 3 -90 0 -144 -6 -144 -5 0 -40 14 -77 31 -78
37 -121 36 -249 -5 -103 -33 -176 -83 -225 -157 -78 -117 -76 -208 8 -289 63
-62 112 -83 197 -88 85 -5 99 1 229 99 51 38 95 69 98 69 4 0 7 -18 7 -39 0
-41 32 -90 71 -112 24 -13 63 12 78 49 12 31 50 509 52 653 2 156 -21 203
-156 315 -34 28 -38 34 -37 79 2 80 10 105 36 105 70 0 513 43 528 51 10 5 18
20 18 34 0 30 -118 130 -175 148 -62 19 -1516 17 -1538 -2 -30 -24 -19 -48 63
-136 44 -48 86 -99 94 -113 9 -19 15 -100 20 -280 9 -328 3 -350 -112 -434
-32 -23 -83 -66 -115 -95 -68 -62 -165 -115 -214 -116 -25 -1 -42 7 -66 31
-49 49 -44 82 37 241 84 166 105 226 113 321 20 275 -151 477 -454 536 -228
44 -1212 83 -1726 69 -276 -7 -278 -8 -308 -32 -25 -21 -27 -28 -18 -46 23
-45 51 -64 172 -117 l124 -54 6 -70 c6 -65 -2 -288 -22 -611 l-8 -129 -69 -63
c-226 -207 -277 -241 -343 -223 -74 20 -155 95 -167 157 -8 38 10 77 95 218
149 242 191 351 177 458 -25 182 -187 346 -387 391 -72 17 -251 29 -712 51
-239 11 -325 19 -347 30 -20 10 -42 41 -72 97 -51 98 -120 170 -220 230 -64
38 -80 43 -146 47 l-75 3 32 -46z m5631 -1424 c37 -12 55 -23 55 -34 0 -19
-120 -120 -176 -149 -58 -29 -95 -25 -135 15 -63 63 -46 117 51 162 60 28 126
30 205 6z m-6469 -67 c52 -18 104 -58 149 -114 l31 -40 -44 -6 c-25 -4 -71 -2
-103 5 -50 10 -66 20 -105 59 -56 58 -67 89 -36 101 33 13 58 12 108 -5z"/>
<path d="M7303 2952 c-143 -51 -270 -204 -319 -382 -19 -70 -23 -224 -14 -580
5 -163 4 -178 -16 -221 -68 -147 -200 -208 -416 -194 -73 4 -119 3 -143 -5
-40 -13 -40 -13 -20 -44 39 -59 218 -93 348 -66 132 27 255 117 310 227 60
118 75 234 53 421 -48 409 15 603 230 704 87 40 168 46 285 20 l87 -20 10 24
c10 21 6 26 -45 60 -77 51 -124 66 -218 71 -60 3 -93 -1 -132 -15z"/>
<path d="M691 2863 c-27 -25 -35 -49 -72 -198 -35 -145 -40 -181 -36 -242 9
-123 68 -217 167 -268 64 -33 107 -42 260 -59 224 -25 300 -54 390 -146 73
-75 120 -194 120 -302 0 -44 34 -111 54 -105 26 8 56 70 56 116 -1 179 -120
399 -257 474 -60 32 -107 43 -283 62 -247 26 -331 70 -365 189 -21 72 -17 137
20 308 24 112 24 120 9 158 -9 22 -20 40 -25 40 -5 0 -22 -12 -38 -27z"/>
<path d="M1238 1960 c-24 -15 -52 -181 -46 -279 6 -102 40 -173 122 -255 120
-119 205 -144 536 -156 331 -13 410 -30 462 -101 9 -13 49 -115 87 -226 l70
-203 -59 40 c-71 48 -87 70 -149 202 -44 95 -93 158 -122 158 -4 0 -16 -14
-24 -31 -13 -25 -14 -40 -6 -79 37 -170 160 -330 320 -414 136 -71 222 -81
387 -44 123 27 407 32 489 9 109 -31 160 -72 170 -140 7 -46 35 -101 50 -101
6 0 21 10 33 23 72 77 -33 275 -183 343 -141 65 -272 67 -517 8 -174 -41 -262
-43 -332 -7 l-39 20 32 6 c28 6 31 10 31 45 0 46 -91 365 -120 422 -39 76
-126 145 -215 172 -16 4 -140 13 -275 18 -273 11 -364 22 -426 50 -61 27 -129
94 -161 159 -26 53 -28 64 -28 192 0 121 -2 139 -19 158 -21 23 -41 26 -68 11z"/>
<path d="M6550 1901 c-115 -37 -196 -91 -261 -174 -48 -60 -84 -170 -139 -423
-44 -205 -66 -270 -115 -336 -93 -127 -245 -168 -456 -125 -48 10 -109 17
-135 15 -41 -3 -49 -6 -52 -25 -4 -25 44 -83 95 -114 33 -21 43 -22 161 -15
221 12 353 56 447 150 78 78 100 134 151 382 45 215 76 315 119 384 77 121
182 170 364 170 92 0 201 23 201 42 0 21 -52 58 -101 72 -71 22 -208 20 -279
-3z"/>
<path d="M5504 1120 c-62 -13 -110 -35 -180 -85 -53 -38 -94 -86 -246 -288
-204 -271 -275 -351 -333 -378 -91 -42 -184 -14 -298 89 -50 46 -75 62 -96 62
-50 0 -61 -9 -61 -48 0 -32 8 -45 67 -100 84 -79 181 -128 285 -143 l76 -11
95 61 c132 86 201 164 372 421 86 131 171 217 250 256 56 27 68 29 175 29 100
0 126 -4 197 -28 72 -25 87 -27 118 -17 31 10 34 14 29 38 -10 41 -41 69 -108
96 -120 47 -247 65 -342 46z"/>
<path d="M4152 675 c-103 -29 -179 -85 -272 -202 -96 -118 -150 -172 -202
-199 -95 -48 -154 -29 -353 117 -60 45 -131 92 -156 105 l-47 23 -6 -22 c-15
-56 -6 -88 38 -146 132 -171 271 -241 454 -228 98 7 149 34 220 115 124 143
187 199 281 245 49 25 124 53 166 62 116 26 162 17 315 -61 113 -57 133 -64
165 -58 33 6 36 9 31 33 -9 38 -106 125 -179 160 -86 41 -172 60 -297 66 -76
4 -120 1 -158 -10z"/>
</g>
</svg>
